<svg width="154" height="300" viewBox="0 0 154 300" fill="none" xmlns="http://www.w3.org/2000/svg">
<path opacity="0.2" d="M0.526041 50.6226C0.526041 50.9083 0.535214 51.1901 0.548934 51.4678L0.526041 51.4551L0.526042 52.2599L0.526045 81.5654L0.526045 81.856L0.785082 81.9878L59.2191 111.715L0.99998 111.715L0.526048 111.715L0.526048 112.189L0.526051 137.554L0.526051 138.028L0.999983 138.028L9.89996 138.028C7.77461 140.054 5.9303 142.267 4.40771 144.668L4.40723 144.669C1.82594 148.756 0.526052 153.285 0.526053 158.256L0.526059 212.177L0.526059 212.651L0.999991 212.651L48.2687 212.651L1.13927 223.315L0.769929 223.399L0.769929 223.778L0.769934 264.35L0.769934 264.728L1.13875 264.812L152.238 299.182L152.817 299.314L152.817 298.72L152.817 272.051L152.817 271.673L152.449 271.589L124.117 265.096L124.117 223.015L152.695 216.316L153.061 216.23L153.061 215.854L153.061 186.244L153.061 185.77L152.587 185.77L86.2554 185.77L152.801 152.102L153.061 151.971L153.061 151.679L153.061 112.189L153.061 111.715L152.587 111.715L92.8041 111.715L148.822 77.126L148.822 77.1258L152.837 74.642L153.061 74.5031L153.061 74.239L153.061 24.8692C153.061 18.6035 150.754 13.4619 146.163 9.48364C141.613 5.54037 136.116 2.91266 129.705 1.57965C123.299 0.247831 116.669 0.249052 109.84 1.57846L108.783 1.78412L108.816 1.80859C102.429 3.21747 97.0319 5.9675 92.6234 10.0536L45.644 48.7442L45.6346 48.7519L45.6257 48.7601C44.1652 50.0938 42.554 50.9252 40.7689 51.2817L40.768 51.2819C38.9648 51.6457 37.2433 51.671 35.6186 51.3772C33.9998 51.0845 32.6294 50.4758 31.5145 49.5992C30.4431 48.7433 29.9117 47.6575 29.9117 46.3072L29.9117 2.34894L29.9117 1.87823L29.441 1.87503L1.0032 1.68079L0.526036 1.67752L0.526036 2.15469L0.526041 50.6226ZM64.5112 163.539L64.53 163.525L64.53 185.784L29.6679 185.784L29.6679 162.586C29.6679 161.313 30.0676 159.95 30.8825 158.503C31.6883 157.072 32.8775 155.774 34.4291 154.613C35.9973 153.453 37.9042 152.474 40.1385 151.682L40.1397 151.682C42.3653 150.885 44.9728 150.488 47.9712 150.488L47.9821 150.488L47.9929 150.488C50.6665 150.365 52.9627 150.666 54.9136 151.401L54.9163 151.402C56.8911 152.133 58.5812 153.143 59.9568 154.402L59.9573 154.402C61.3673 155.689 62.4765 157.077 63.2923 158.592C64.1149 160.12 64.5112 161.457 64.5112 162.6L64.5112 163.539ZM83.3658 138.042L121.539 138.042L91.2723 154.168C90.545 149.973 89.076 146.129 86.8647 142.616C85.8414 140.984 84.6711 139.462 83.3658 138.042ZM117.321 26.7492C118.198 26.581 119.109 26.5404 120.056 26.653L120.058 26.6717C121.039 26.7925 121.897 27.0059 122.6 27.292C122.939 27.4327 123.148 27.587 123.272 27.74C123.389 27.8843 123.45 28.0511 123.45 28.2688L123.45 60.128L75.1496 90.2337L48.8962 76.6005C49.0106 76.5797 49.1251 76.5584 49.2396 76.5366C57.3771 75.0767 64.6025 71.3719 70.9281 65.435L115.62 27.6873L115.67 27.645L115.707 27.5906C115.944 27.2399 116.437 26.9327 117.321 26.7492ZM79.5686 232.968C84.8282 231.81 90.564 230.509 96.7758 229.064L96.7758 259.066L31.0911 244.071C37.0541 242.748 42.5037 241.525 47.4396 240.391C52.9375 239.142 58.3224 237.879 63.5753 236.63C68.8252 235.381 74.15 234.161 79.5686 232.968Z" stroke="black" stroke-width="0.947864"/>
</svg>
