<svg version="1.2" xmlns="http://www.w3.org/2000/svg" viewBox="0 0 300 154" width="300" height="154">
	<title>ARKSBackground</title>
	<style>
		.s0 { opacity: .2;fill: none;stroke: #000000;stroke-width: .9 } 
	</style>
	<path class="s0" d="m249.4 0.5q-0.5 0-0.9 0h-0.8-29.3-0.3l-0.1 0.3-29.7 58.4v-58.2-0.5h-0.5-25.4-0.4v0.5 8.9q-3.1-3.2-6.7-5.5-6.1-3.9-13.6-3.9h-53.9-0.5v0.5 47.3l-10.6-47.2-0.1-0.3h-0.4-40.6-0.3l-0.1 0.3-34.4 151.1-0.1 0.6h0.6 26.6 0.4l0.1-0.4 6.5-28.3h42.1l6.7 28.6 0.1 0.4h0.3 29.7 0.4v-0.5-66.3l33.7 66.5 0.1 0.3h0.3 39.5 0.5v-0.5-59.8l34.6 56 2.5 4 0.1 0.3h0.3 49.3q9.4 0 15.4-6.9 5.9-6.9 7.9-16.5 2-9.6 0-19.9l-0.2-1q-2.1-9.6-8.3-16.2l-38.6-47h-0.1q-2-2.2-2.5-4.8-0.5-2.7-0.1-5.2 0.5-2.4 1.8-4.1 1.3-1.6 3.3-1.6h44 0.4v-0.5l0.2-28.4v-0.5h-0.5zm-112.9 64h-22.2v-34.8h23.2q1.9 0 4.1 1.2 2.1 1.2 3.9 3.5 1.7 2.4 2.9 5.7 1.2 3.4 1.2 7.9 0.2 4-0.9 6.9-1.1 3-3 5.1-2 2.1-4.2 3.3-2.3 1.2-4 1.2zm25.5 18.9v38.1l-16.2-30.2q6.3-1.1 11.6-4.4 2.4-1.6 4.6-3.5zm111.3 33.9q0.2 1.3 0.1 2.8h-0.1q-0.2 1.4-0.6 2.5-0.2 0.5-0.4 0.7-0.2 0.1-0.6 0.1h-31.8l-30.1-48.3 13.6-26.2q0 0.2 0.1 0.3 2.2 12.2 11.1 21.7l37.7 44.7 0.1 0.1c0.4 0.2 0.7 0.7 0.9 1.6zm-206.3-37.7q1.8 7.9 3.9 17.2h-30l15-65.7q2 8.9 3.7 16.3 1.9 8.3 3.8 16.2 1.8 7.8 3.6 16z"/>
</svg>