<svg width="95" height="50" viewBox="0 0 95 50" fill="none" xmlns="http://www.w3.org/2000/svg">
<g clip-path="url(#clip0_5118_60)">
<path d="M94.514 24.2126C94.4743 24.1997 94.4149 24.2452 94.366 24.2696C94.2682 24.3185 94.161 24.4269 94.0772 24.4117C93.4704 24.2953 92.8613 24.2265 92.2428 24.2428C91.7455 24.2557 91.2482 24.2428 90.752 24.2603C89.1156 24.3127 87.4792 24.3861 85.8429 24.428C83.3772 24.4921 80.9104 24.5363 78.4448 24.5911C78.1431 24.5981 77.8403 24.6318 77.5398 24.619C77.2335 24.6062 76.9307 24.5294 76.6244 24.52C76.332 24.5107 76.0374 24.5678 75.7439 24.5701C74.606 24.5771 73.4669 24.5724 72.329 24.5724C72.2416 24.6854 72.1287 24.7833 72.0262 24.7728C71.6372 24.732 71.2528 24.64 70.8638 24.6004C70.6018 24.5736 70.3304 24.5748 70.0707 24.6167C69.7492 24.668 69.359 24.4117 69.1098 24.8135C69.1028 24.8252 69.0725 24.8264 69.0539 24.8264C68.5473 24.831 68.0406 24.838 67.534 24.838C67.3535 24.838 67.1729 24.824 66.9924 24.8112C66.947 24.8077 66.9039 24.7821 66.8596 24.767C66.7595 24.732 66.6535 24.6551 66.5603 24.6691C66.1771 24.7262 65.8009 24.8427 65.4166 24.8753C64.9752 24.9125 64.5291 24.8834 64.076 24.8834C64.1063 24.8054 64.1273 24.7506 64.1296 24.7448C63.4587 24.7448 62.7914 24.7425 62.124 24.7483C62.0541 24.7483 61.9516 24.7856 61.9225 24.8368C61.7909 25.0779 61.5941 25.0278 61.3844 24.9987C61.0781 24.9568 60.7672 24.8997 60.462 24.9149C60.1778 24.93 59.8995 25.0535 59.6141 25.0872C59.3369 25.1199 59.0434 25.1466 58.7744 25.0919C58.411 25.0174 58.0744 24.8159 57.6831 24.8788C57.647 24.8846 57.6039 24.8543 57.5678 24.8601C56.9796 24.9556 56.3413 24.7227 55.7998 25.1571C55.6076 25.312 55.0905 25.206 54.9973 25.0674C54.8564 25.0674 54.7341 25.0791 54.6141 25.0651C54.4441 25.0441 54.2752 24.9719 54.1086 24.9766C53.0406 25.0092 51.9738 25.0616 50.9058 25.0966C49.5803 25.1397 48.2561 25.1699 46.9307 25.2154C46.8107 25.22 46.6931 25.2934 46.5754 25.3342C46.5813 25.3551 46.5859 25.3761 46.5918 25.397C46.6884 25.4145 46.7839 25.4332 46.8957 25.453C46.671 25.6836 46.1736 25.6172 46.0199 25.3598C45.6682 25.4634 45.2454 25.2561 44.9495 25.6044C44.4126 25.5939 43.8722 25.6114 43.3388 25.5601C43.0266 25.5298 42.9556 25.347 43.008 25.0243C43.0266 24.9102 43.008 24.7914 43.0255 24.6773C43.0791 24.3314 43.0837 23.961 43.2258 23.6535C43.2957 23.5021 43.6241 23.4695 43.8349 23.3833C43.8536 23.3763 43.871 23.367 43.8885 23.3588C44.1843 23.2272 44.4755 23.0828 44.776 22.9652C45.4329 22.7078 46.1061 22.4888 46.7525 22.2081C47.6341 21.825 48.5007 21.4068 49.366 20.9864C50.0416 20.6591 50.7054 20.3062 51.3658 19.9684C51.3332 19.8694 51.3134 19.8066 51.3041 19.7798C51.4939 19.7378 51.6675 19.732 51.8107 19.6621C52.1531 19.4944 52.4816 19.3011 52.8123 19.1101C52.9113 19.053 53.0383 18.9854 53.0779 18.8923C53.2258 18.5382 53.6008 18.4846 53.8477 18.2668C53.9211 18.2016 53.9852 18.1247 54.0527 18.0525C54.0318 18.0304 54.0108 18.0071 53.9887 17.985C53.8675 18.0246 53.7453 18.063 53.6241 18.1026C53.6754 17.9733 53.7534 17.8883 53.8489 17.8371C54.2519 17.6228 54.6654 17.4283 55.0648 17.207C55.7264 16.8413 56.2412 16.2496 56.961 15.9701C56.9749 15.9642 56.9796 15.9363 56.9924 15.9223C57.3045 15.5752 57.6202 15.2305 57.9276 14.8799C58.4191 14.3209 58.913 13.7642 59.3917 13.1946C59.6293 12.9116 59.8319 12.5983 60.0579 12.306C60.2244 12.0905 60.4341 11.903 60.5703 11.6712C60.8801 11.1483 61.162 10.609 61.4415 10.0698C61.4858 9.98358 61.5137 9.82751 61.4671 9.76695C61.3181 9.57245 61.4264 9.39658 61.4543 9.21139C61.5009 8.91091 61.7571 8.64885 61.6185 8.31226C61.6092 8.28896 61.6407 8.23772 61.6675 8.21326C61.8631 8.02574 61.8596 7.84522 61.6535 7.66586C61.5976 7.68216 61.5393 7.69963 61.4275 7.73341C61.4962 7.47135 61.5533 7.25356 61.6104 7.03576C61.5685 7.04741 61.5265 7.06022 61.4846 7.07187C61.4159 6.98684 61.3017 6.90997 61.2854 6.8168C61.1515 6.03297 61.1993 5.88156 61.6418 5.72898C61.5626 5.54147 61.4846 5.35861 61.3949 5.1478C61.5312 4.98941 61.4881 4.82751 61.3728 4.60506C61.2854 4.43851 61.0304 4.25099 61.2354 3.95167C61.4427 4.23352 61.6348 4.49208 61.8375 4.76695C61.8608 4.7157 61.8736 4.69125 61.8841 4.66679C62.0122 4.36397 61.7269 4.23119 61.6162 4.03087C61.3239 3.5056 61.2121 2.86968 60.6833 2.48766C60.6542 2.46669 60.6181 2.41428 60.6262 2.38983C60.7497 2.02877 60.3933 2.00548 60.2407 1.84475C60.1755 1.77604 60.066 1.75041 59.995 1.68519C59.8307 1.53378 59.677 1.37072 59.5186 1.21349C59.5454 1.17622 59.5722 1.13895 59.6001 1.10168C59.8133 1.21233 60.0264 1.32414 60.2698 1.45109C60.3362 1.18321 60.1918 1.05044 60.0124 0.951437C59.5827 0.713841 59.1296 0.544961 58.6311 0.506527C58.5065 0.497209 58.3877 0.387729 58.2666 0.324836C58.2771 0.280577 58.2875 0.235155 58.2992 0.190897C57.8601 0.190897 57.421 0.183908 56.9819 0.194391C56.827 0.197885 56.7338 0.162944 56.7222 -0.00244141H56.6046C56.4368 0.0674398 56.268 0.137321 56.1072 0.204873C56.2377 0.252625 56.367 0.299212 56.4951 0.3458C56.4904 0.371423 56.4858 0.395881 56.4811 0.421505C56.1177 0.47508 55.7695 0.782557 55.4096 0.471586C55.0718 0.668418 54.7492 0.873403 54.4115 1.04694C53.8804 1.31948 53.3388 1.57222 52.7995 1.82845C52.5794 1.93327 52.3372 2.12078 52.131 2.09167C51.8736 2.0544 51.728 2.15689 51.5708 2.28034C50.5016 3.12241 49.4091 3.93769 48.3807 4.82868C47.5899 5.51468 46.8433 6.26124 46.1527 7.04741C45.4748 7.81843 44.8622 8.65351 44.2775 9.49791C43.8221 10.156 43.4506 10.8722 43.0476 11.5664C43.0162 11.6211 43.0278 11.7038 43.0278 11.7737C43.0278 11.8471 43.0639 11.9309 43.0406 11.9938C42.923 12.3106 42.7937 12.6228 42.6633 12.9337C42.4105 13.5405 42.1555 14.145 41.9016 14.7506C41.671 15.3015 41.4205 15.8466 41.2156 16.4068C41.0269 16.9216 40.8696 17.4492 40.731 17.9803C40.4131 19.2021 40.0823 20.4227 39.8284 21.6584C39.7562 22.0078 39.7119 22.1837 39.3346 22.2873C38.6963 22.4632 38.0907 22.7532 37.4618 22.9663C36.7001 23.2237 35.9302 23.4555 35.1615 23.6908C34.4138 23.9191 33.6649 24.1427 32.9137 24.3605C32.1275 24.5888 31.3367 24.7984 30.5529 25.0372C30.0555 25.1886 29.5733 25.3866 29.0772 25.5426C28.7557 25.644 28.4203 25.6975 28.0954 25.7861C27.3884 25.9794 26.6861 26.1879 25.978 26.3789C25.0462 26.6293 24.1086 26.8552 23.1804 27.1185C22.4804 27.3165 21.7874 27.5168 21.0537 27.5529C20.6961 27.5704 20.3409 27.702 19.9856 27.6996C19.5733 27.6961 19.189 27.9477 18.7674 27.8068C18.7301 27.794 18.6765 27.8406 18.63 27.8475C18.2142 27.9128 17.8007 27.9861 17.3826 28.0362C16.9179 28.091 16.4322 28.0572 15.9908 28.1841C15.4422 28.3402 14.9123 28.3379 14.3649 28.2715C14.2402 28.2564 14.1086 28.2529 13.9852 28.2727C13.581 28.3367 13.1792 28.4148 12.7751 28.4846C12.6551 28.5056 12.5305 28.5044 12.4117 28.5289C12.2195 28.5685 12.032 28.6407 11.8375 28.6617C11.5766 28.6908 11.3041 28.6477 11.049 28.6989C10.2757 28.8585 9.50463 29.0309 8.7406 29.2312C8.06159 29.4094 7.3849 29.6051 6.72453 29.8415C6.04551 30.0837 5.37698 30.3609 4.72476 30.6684C4.18667 30.9223 3.63578 31.1867 3.17223 31.5501C2.73431 31.8925 2.29522 32.2093 1.77694 32.391C1.56496 32.4655 1.41938 32.5214 1.46131 32.7229C1.26913 32.7975 1.10375 32.8545 0.945349 32.9256C0.812575 32.985 0.679801 33.1317 0.562167 33.1178C0.335054 33.091 0.171997 33.1783 0.00195312 33.2855C0.00195312 33.3251 0.00195312 33.3647 0.00195312 33.4031C0.119586 33.4683 0.310595 33.5103 0.340877 33.6034C0.446863 33.9307 0.634378 34.1345 0.963984 34.2347C1.08511 34.2708 1.18877 34.3756 1.2901 34.4595C1.61039 34.7274 1.98541 34.8345 2.38723 34.7658C2.73198 34.7064 3.06508 34.5794 3.4075 34.4967C3.89084 34.3803 4.37652 34.2789 4.86103 34.166C5.60992 33.9901 6.35881 33.8096 7.10654 33.6314C7.35346 33.5731 7.60037 33.5172 7.84728 33.4567C8.24794 33.3588 8.64742 33.2587 9.04807 33.1574C9.12261 33.1387 9.19715 33.1143 9.2682 33.0863C9.41029 33.0304 9.54656 32.9524 9.69331 32.9163C10.0497 32.8301 10.4131 32.7718 10.7695 32.6845C11.1503 32.5913 11.5242 32.476 11.9027 32.3735C12.053 32.3328 12.2067 32.3095 12.3558 32.2687C12.6935 32.1767 13.0278 32.0684 13.3691 31.9868C13.9013 31.8587 14.4382 31.7562 14.9705 31.6281C15.4073 31.5221 15.8347 31.3812 16.2715 31.2799C17.357 31.0283 18.4471 30.7942 19.5338 30.5426C19.9903 30.4366 20.4352 30.2713 20.8964 30.1909C21.5836 30.0709 22.2801 29.9976 22.9731 29.9114C24.0586 29.7774 25.1464 29.654 26.2319 29.5165C27.0064 29.4187 27.81 29.5701 28.5566 29.2405C28.5904 29.2254 28.6346 29.23 28.673 29.2265C29.9123 29.1322 31.1503 29.0379 32.3896 28.9424C32.7797 28.9121 33.1699 28.8841 33.5577 28.841C34.1413 28.777 34.7213 28.6721 35.3059 28.6372C35.8242 28.6058 36.3472 28.6675 36.8666 28.6512C37.5724 28.6291 38.2782 28.5778 38.9829 28.5231C39.2041 28.5056 39.3474 28.579 39.3381 28.7944C39.3276 29.0518 39.203 29.3151 39.2321 29.5631C39.2892 30.0558 39.2775 30.5252 39.2181 31.0213C39.1727 31.4022 39.1774 31.797 39.0865 32.1802C39.0597 32.2908 39.0551 32.4085 39.0586 32.5226C39.0644 32.7229 39.1017 32.9233 39.0935 33.1224C39.083 33.395 39.0283 33.6652 39.0166 33.9377C38.998 34.3989 39.0259 34.8636 38.984 35.3225C38.8734 36.5338 38.7196 37.7404 38.6148 38.9517C38.4972 40.3097 38.4145 41.6712 38.3143 43.0304C38.2479 43.9284 38.0884 44.8182 38.1874 45.729C38.2491 46.2915 38.1792 46.8704 38.4762 47.3933C38.5053 47.4446 38.4844 47.5284 38.4785 47.596C38.4669 47.7614 38.4506 47.9279 38.4355 48.0875C38.673 48.1865 38.7849 48.4241 38.6742 48.6523C38.6055 48.7944 38.616 48.8655 38.7196 48.9808C38.821 49.0938 38.8699 49.2522 38.9433 49.3908C38.9561 49.4141 38.9724 49.4362 38.9922 49.4665C39.0609 49.4117 39.1226 49.3628 39.2123 49.2918C39.2717 49.4257 39.2985 49.5468 39.3684 49.6319C39.479 49.7646 39.6188 49.8729 39.7469 49.9917C39.8284 49.8927 39.9146 49.7972 39.9891 49.6936C40.0334 49.6307 40.0648 49.555 40.0893 49.4816C40.1965 49.152 40.4084 48.8107 40.3828 48.4905C40.2908 47.3363 40.5226 46.21 40.6262 45.0768C40.7241 44.0018 40.9768 42.9407 41.1608 41.8739C41.3309 40.892 41.5114 39.9114 41.6698 38.9272C41.8095 38.0595 41.9423 37.1907 42.0471 36.3183C42.1415 35.531 42.1951 34.7402 42.2649 33.9505C42.3441 33.0525 42.4303 32.1557 42.4979 31.2566C42.527 30.8687 42.5084 30.4762 42.5293 30.0872C42.5515 29.6761 42.6097 29.2673 42.6225 28.8562C42.6307 28.5895 42.7413 28.4171 42.9882 28.3647C43.2433 28.3099 43.5065 28.2831 43.7674 28.2692C45.6484 28.169 47.5305 28.0688 49.4126 27.9827C49.7725 27.9663 50.1359 28.0316 50.4958 28.0141C51.1503 27.9827 51.8026 27.9035 52.4583 27.8697C53.3772 27.8208 54.2973 27.7975 55.2174 27.759C55.7963 27.7357 56.374 27.7008 56.9528 27.681C57.5386 27.6612 58.1256 27.6635 58.7115 27.6379C59.4743 27.6053 60.2384 27.5715 61.0001 27.504C61.4497 27.4644 61.9202 27.5971 62.35 27.3374C62.4455 27.2803 62.6598 27.2664 62.718 27.3281C62.9568 27.582 63.2514 27.4865 63.5042 27.4632C64.3078 27.3852 65.1405 27.5832 65.9139 27.2175C65.9628 27.1942 66.0315 27.2 66.0886 27.207C66.6255 27.2687 67.1683 27.0754 67.7145 27.3386C67.9766 27.4644 68.3528 27.3677 68.6765 27.3526C69.5093 27.313 70.342 27.2454 71.176 27.2198C71.7024 27.2035 72.2312 27.2571 72.7576 27.2524C73.3959 27.2454 74.0341 27.1953 74.6723 27.1883C75.6041 27.179 76.5359 27.2011 77.4664 27.1953C78.4774 27.1895 79.4883 27.1452 80.4981 27.1569C81.6908 27.1697 82.8834 27.0602 84.076 27.2186C84.557 27.2827 85.0555 27.2163 85.5459 27.2093C86.417 27.1965 87.2882 27.1813 88.1594 27.172C88.3947 27.1697 88.6323 27.1627 88.8664 27.186C89.8098 27.2803 90.7509 27.4166 91.7012 27.2501C92.0588 27.1872 92.4198 27.1371 92.7017 27.0928C92.7879 26.9449 92.8904 26.7423 92.9055 26.7481C93.1641 26.8564 93.2759 26.6898 93.4028 26.5233C93.4343 26.4814 93.517 26.4825 93.5717 26.4546C93.6241 26.429 93.6859 26.4022 93.7185 26.3579C93.8419 26.1925 93.9549 26.0202 94.1121 25.7907C94.0178 25.623 94.0656 25.4413 94.3136 25.2421C94.5803 25.0278 94.4301 24.6132 94.6083 24.3279C94.6199 24.3092 94.557 24.2161 94.5151 24.2032L94.514 24.2126ZM43.6556 20.2899C43.7918 19.6284 44.0329 19.0064 44.2833 18.381C44.479 17.8953 44.5221 17.3479 44.7224 16.8646C45.2838 15.5089 45.8079 14.1287 46.5009 12.8406C47.2416 11.4627 48.0954 10.135 49.1296 8.94585C49.6537 8.3437 50.2267 7.78349 50.7718 7.19765C51.0187 6.9321 51.2132 6.60716 51.4939 6.38819C52.216 5.82216 52.9719 5.29805 53.7173 4.76113C54.3579 4.29991 55.101 4.08677 55.8498 3.88179C56.4636 3.71407 56.8026 4.1089 57.1007 4.5014C57.6458 5.22001 58.0208 6.0353 57.9393 6.95889C57.8869 7.55754 57.7553 8.16318 57.5666 8.73504C57.1776 9.9137 56.4497 10.9083 55.6973 11.8774C55.5063 12.1231 55.2559 12.3269 55.0823 12.582C54.9414 12.7905 54.8727 13.0479 54.7748 13.2843C54.7306 13.3903 54.7119 13.5126 54.6456 13.6011C54.6036 13.657 54.4953 13.6628 54.4173 13.6908C54.401 13.6221 54.3847 13.5545 54.3637 13.4683C54.1296 13.6721 53.9106 13.862 53.6765 14.0658C53.7499 14.131 53.8047 14.1788 53.8547 14.223C53.8501 14.2522 53.8536 14.2778 53.8419 14.2894C53.5577 14.5818 53.2899 14.8916 52.9824 15.156C52.7273 15.3749 52.435 15.5543 52.1077 15.6638C52.0739 15.6754 52.0332 15.6987 52.0192 15.729C51.7501 16.2962 51.2086 16.5769 50.7427 16.9321C50.3455 17.2349 49.9391 17.5296 49.5128 17.7881C48.5181 18.3903 47.5456 19.0379 46.4357 19.4269C46.2435 19.4944 46.0665 19.6097 45.8894 19.7145C45.2652 20.0872 44.5897 20.3307 43.892 20.5263C43.6218 20.602 43.609 20.517 43.6556 20.2876V20.2899ZM39.5081 25.2689C39.4918 25.3039 39.479 25.3423 39.4709 25.3807C39.4382 25.538 39.4592 25.7639 39.3637 25.8361C39.2437 25.927 39.0283 25.8944 38.8547 25.9095C38.1256 25.9747 37.3954 26.0306 36.6675 26.104C36.3122 26.1401 35.9605 26.2053 35.6076 26.2566C35.5948 26.2135 35.5808 26.1704 35.568 26.1285C35.7683 26.0446 35.964 25.9468 36.1701 25.8804C36.7653 25.6882 37.3616 25.5019 37.9614 25.3248C38.1839 25.2596 38.4156 25.2317 38.6428 25.1793C38.7348 25.1583 38.8221 25.1175 38.913 25.0907C39.0411 25.0523 39.1692 24.9964 39.3008 24.9859C39.4965 24.9696 39.6118 25.0476 39.5093 25.2689H39.5081Z" fill="#FF0000"/>
</g>
<defs>
<clipPath id="clip0_5118_60">
<rect width="94.6075" height="50" fill="white"/>
</clipPath>
</defs>
</svg>
